# xmcd
#
# Track frame offsets: 
#        150
#        23252
#        42266
#        69752
#        91930
#        108022
#        126816
#        153108
#        177716
#        198616
#        219262
#        244060
#        264300
#        287571
#        313264
#        330844
#        353587
#        378904
#
# Disc length: 5388 seconds
#
# Revision: 0
# Processed by: cddbd v1.5.2PL0 Copyright (c) Steve Scherf et al.
# Submitted via: ExactAudioCopy v1.0b3
#
DISCID=e8150a12
DTITLE=Duy Khanh - Tieng hat Duy Khanh 1
DYEAR=1973
DGENRE=
TTITLE0=Da ta
TTITLE1=Ke o mien xa
TTITLE2=Mua bay trong doi
TTITLE3=Bao gio em quen
TTITLE4=Nhung ban chan
TTITLE5=Tren bon vung chien thuat
TTITLE6=Nho thanh do
TTITLE7=Loi ve dat Me
TTITLE8=Thu nguoi chien binh
TTITLE9=Lay Me con di
TTITLE10=Dem bo vo
TTITLE11=Duong chieu
TTITLE12=Tieng song Huong
TTITLE13=Thu ve em gai thanh do
TTITLE14=Mot ban tay
TTITLE15=Cach biet
TTITLE16=Dua em vao ha
TTITLE17=Nhung ngay xua than ai
EXTD=
EXTT0=
EXTT1=
EXTT2=
EXTT3=
EXTT4=
EXTT5=
EXTT6=
EXTT7=
EXTT8=
EXTT9=
EXTT10=
EXTT11=
EXTT12=
EXTT13=
EXTT14=
EXTT15=
EXTT16=
EXTT17=
PLAYORDER=
